<?xml version="1.0" encoding="utf-8"?>
<!-- Generator: Adobe Illustrator 18.0.0, SVG Export Plug-In . SVG Version: 6.00 Build 0)  -->
<!DOCTYPE svg PUBLIC "-//W3C//DTD SVG 1.1//EN" "http://www.w3.org/Graphics/SVG/1.1/DTD/svg11.dtd">
<svg version="1.1" id="Layer_1" xmlns="http://www.w3.org/2000/svg" xmlns:xlink="http://www.w3.org/1999/xlink" x="0px" y="0px"
	 viewBox="0 0 93.791 14.393" enable-background="new 0 0 93.791 14.393" xml:space="preserve">
<g>
	<path d="M61.437,11.63c-0.706-0.322-1.543-0.486-2.486-0.486c-0.79,0.006-0.978,0.064-1.547,0.481l-0.006-0.093l0.447-0.453
		c0.34-0.314,0.627-0.579,0.9-0.856c0.463-0.472,0.686-1.035,0.663-1.674c-0.009-0.253-0.007-0.507-0.005-0.771l0.002-0.376
		c-0.146-0.083-0.227-0.088-0.311-0.088c-0.399,0-0.901,0.069-1.242,0.606c0.012-0.289,0.078-0.629,0.236-0.921
		c0.262-0.481,0.748-0.837,1.237-0.905l0.069-1.935L59.02,3.874c-0.27-0.175-0.545-0.354-0.831-0.513
		c-0.137-0.076-0.246-0.11-0.353-0.11c-0.189,0-0.365,0.11-0.604,0.302l0.022-0.096l1.161-0.999l0.391-0.329l1.919,1.448
		l0.293-0.142l0.409-0.292V2.8L61.34,2.091l0.166,0.143l0.033,0.665l1.251-0.764l0.279,0.252l1.457,0.989l0.171-0.058l0.524-0.367
		l-0.051-0.85l0.007,0.011l0.008,0.089l0.138,0.017l-0.022,0.176l0.061,0.311l0.702-0.381l0.238-0.178
		c1.007,0.201,2.067,1.018,2.117,2.404c0.034,0.935,0.021,1.887,0.007,2.809l-0.012,0.802c-0.007,0.57-0.274,1.052-0.82,1.473
		c-0.043,0.033-0.252,0.221-0.252,0.221l0.792,0.304l1.006,0.223l-1.157,1.248l-1.701-0.815h0.014l0.082,0.042l0.309-0.381
		c0.289-0.361,0.434-0.807,0.441-1.361c0.007-0.446,0.006-0.892,0.005-1.351L67.13,6.946L65.395,7.6l-0.049,2.698l0.337,0.178
		l0.11,0.039l-0.668,0.559l-0.498,0.54l-1.417-0.91l0.038-3.751l-1.659,0.616l-0.049,2.605c0.197,0.149,0.323,0.2,0.447,0.2
		c0.202,0,0.377-0.124,0.648-0.368l0.05,0.115l-0.706,0.801L61.437,11.63z M64.65,3.444l-0.035,6.579l0.331,0.182l0.179,0.068
		l0.108-7.227L64.65,3.444z M59.907,10.014c0.266,0,0.535,0.056,0.796,0.11c0.208,0.043,0.415,0.086,0.624,0.104l0.087-6.833
		l-0.525,0.237l-0.114,0.086l-0.038,1.213c-0.007,0.879-0.013,1.75,0.016,2.62c0.029,0.872-0.317,1.55-1.092,2.134l-0.376,0.281
		c0.077,0.062,0.136,0.063,0.192,0.063C59.552,10.031,59.835,10.014,59.907,10.014z M65.392,6.407l-0.047,1.06l0.848-0.262
		l0.87-0.397L67.11,5.63L65.392,6.407z M61.593,6.372l-0.047,1.059l1.632-0.615l0.049-1.176L61.593,6.372z M65.356,3.061v3.207
		l1.254-0.454l0.459-0.212c0.129-1.471-0.453-2.372-1.62-2.562l-0.035-0.005L65.356,3.061z M61.546,6.237l0.287-0.008l1.361-0.624
		l0.047-1.511l-1.316-0.906L61.546,2.94V6.237z"/>
	<path d="M6.066,11.736c-0.321,0-0.656-0.033-0.996-0.099c-1.73-0.338-2.821-1.414-3.155-3.111C1.5,6.413,2.369,4.756,4.573,3.463
		C4.312,3.211,4.032,3.118,3.696,3.118c-1.051,0-2.009,0.923-2.696,2.6L0.855,5.617l0.062-0.172c0.23-1.054,0.448-2.05,1.242-2.785
		C2.592,2.258,3.13,2.071,3.851,2.071c0.268,0,0.541,0.025,0.812,0.061C5.435,2.23,6.205,2.36,6.973,2.49L7.84,2.634
		c0.142,0.023,0.282,0.037,0.416,0.037c0.531,0,0.898-0.225,1.153-0.709l0,0.012L9.363,2.066l0.089,0.092
		C8.985,3.429,8.665,3.692,7.538,3.692c-0.152,0-0.317-0.005-0.5-0.014l-0.083,6.914l0.147,0.032c0.816,0,1.54-0.222,2.276-0.697
		l-0.001,0.153C8.626,11.139,7.449,11.736,6.066,11.736z M6.174,8.218L4.95,9.014l-0.8,0.548c0.626,0.758,1.44,1.087,2.634,1.112
		l0.081-6.991L6.639,3.576L6.174,3.491V8.218z M4.833,3.296C2.65,5.311,2.939,8.234,3.973,9.485
		c0.789-0.339,0.985-0.629,0.991-1.403c0.005-0.768,0.005-1.537,0.004-2.305l0-2.605L4.833,3.296z"/>
	<path d="M25.239,11.733c-0.938,0-1.76-0.227-2.514-0.693c-0.898-0.556-1.445-1.419-1.672-2.639
		c-0.398-2.144,0.803-4.013,2.169-4.914c0.089-0.059,0.207-0.09,0.36-0.095c-0.737,0.668-1.139,1.634-1.215,2.817
		c-0.082,1.251,0.136,2.236,0.684,3.097c0.473-0.224,0.676-0.562,0.679-1.053c0.006-0.894,0.007-1.789,0.008-2.683l0.001-1.384
		l2.567-2.096l0.382,0.173c0.377,0.132,0.741,0.259,1.112,0.361c0.16,0.044,0.303,0.08,0.449,0.08c0.258,0,0.45-0.118,0.587-0.36
		l0.1,0.162l-1.296,1.476L25.87,3.208l-0.11,7.437c0.25,0.094,0.436,0.107,0.644,0.107c0.927,0,1.702-0.238,2.366-0.729
		c-0.085,0.107-0.1,0.162-0.127,0.197c-0.593,0.776-1.361,1.251-2.282,1.411C25.973,11.699,25.595,11.733,25.239,11.733z
		 M25.006,3.295l-0.034,4.943l-1.095,0.681l-0.675,0.445c0.536,0.8,1.259,1.204,2.338,1.353l0.091-7.849L25.006,3.295z"/>
	<path d="M11.665,13.04c0.611-0.449,0.884-1.159,0.88-2.18c-0.004-1.27-0.003-2.538-0.002-3.817l0-1.619l-0.355-0.266l-0.365-0.228
		l-0.501,0.326L11.291,10.4l0.454,0.406l-0.461,0.3l-0.475,0.437l-0.855-0.734c0.043-0.023,0.062-0.126,0.081-0.226
		c0.04-0.218,0.076-0.42,0.077-0.622c0.01-2.454,0.007-4.908,0.003-7.362c0-0.175-0.016-0.349-0.034-0.548l-0.012-0.134L10.481,2.3
		l0.162-0.158c0.245-0.321,0.476-0.625,0.882-0.721c-0.3,0.705-0.264,1.493-0.225,2.327c0.019,0.414,0.038,0.832,0.026,1.253
		l0.946-0.626l0.329-0.278L13.56,4.78l0.315,0.202c-0.002,0-0.005-0.001-0.007-0.001c-0.043,0-0.062,0.08-0.08,0.158
		c-0.035,0.155-0.071,0.314-0.072,0.474l-0.004,0.62c-0.01,1.374-0.02,2.747,0.005,4.12c0.022,1.29-0.55,2.091-1.914,2.677
		l-0.091,0.013L11.665,13.04z"/>
	<path d="M31.093,13.037l0.094-0.062c0.097-0.082,0.196-0.167,0.281-0.263c0.332-0.377,0.509-0.828,0.514-1.306
		c0.014-1.408,0.012-2.818,0.01-4.244l-0.002-1.751l-0.335-0.254L31.292,4.93l-0.24,0.121L30.79,5.257l-0.03,5.15l0.455,0.398
		l-0.936,0.736l-0.874-0.748c0.045,0,0.067-0.087,0.089-0.171c0.044-0.172,0.085-0.334,0.085-0.5
		c0.009-2.571,0.006-5.142,0.002-7.714c0-0.133-0.017-0.266-0.038-0.427l-0.033-0.273l0.27,0.434l0.215,0.196l0.098-0.091
		c0.218-0.353,0.444-0.719,0.904-0.827c-0.287,0.65-0.269,1.413-0.251,2.151c0.012,0.46,0.023,0.93-0.016,1.389l0.125,0.114
		l1.214-0.978l1.271,0.882c-0.001,0-0.002,0-0.004,0c-0.044,0-0.062,0.079-0.079,0.164c-0.037,0.177-0.07,0.338-0.071,0.5
		L33.18,6.257c-0.01,1.365-0.02,2.728,0.005,4.092c0.022,1.29-0.549,2.091-1.912,2.679c-0.029,0.013-0.068,0.014-0.106,0.014
		l-0.048,0.04L31.093,13.037z"/>
	<path d="M48.728,13.812c-0.635-0.326-1.293-0.485-2.012-0.485c-0.128,0-0.256,0.006-0.387,0.016l-0.17,0.252l-0.118-0.201
		l0.823-0.911l0.691-0.834l-1.559-1.169c0.048-0.01,0.069-0.105,0.088-0.199c0.039-0.182,0.079-0.369,0.081-0.555
		c0.01-0.978,0.009-1.955,0.007-2.933l-0.001-1.316l2.201-1.37l1.587,1.012c-0.001,0-0.001,0-0.001,0
		c-0.052,0-0.075,0.093-0.098,0.183c-0.043,0.173-0.088,0.352-0.09,0.53c-0.007,0.695-0.007,1.389-0.006,2.083
		c0.001,0.671,0.001,1.342-0.005,2.013c-0.004,0.447,0.109,0.847,0.346,1.218c0.068,0.11,0.123,0.229,0.185,0.368l0.105,0.229
		l-0.606,0.705L48.728,13.812z M47.223,12.206l0.779,0.276l1.502,0.302l-0.984-2.016l-0.065-0.028L47.223,12.206z M47.343,10.074
		l0.392,0.324l0.485,0.352l0.251-0.177l0.097-0.108l0.02-4.895l-0.729-0.493l-0.516-0.317V10.074z"/>
	<path d="M91.067,10.733c0.048-0.007,0.067-0.102,0.087-0.192c0.039-0.185,0.076-0.359,0.077-0.537
		c0.009-1.134,0.008-2.268,0.007-3.411l-0.001-1.155l-0.303-0.248l-0.374-0.254l-0.322,0.181l-0.222,0.17L89.985,10.4l0.21,0.208
		l0.238,0.191l-0.535,0.381l-0.375,0.354l-0.877-0.719c0.045-0.035,0.064-0.149,0.081-0.25c0.037-0.219,0.07-0.42,0.071-0.622
		c0.009-1.128,0.008-2.256,0.006-3.396l-0.001-1.271L88.3,4.981l-0.145-0.07l0.832-0.684l0.124-0.124l0.233,0.253l0.822,0.598
		l0.334-0.201l0.789-0.659l0.755,0.571l0.542,0.36c-0.05,0.01-0.07,0.11-0.089,0.199c-0.041,0.195-0.078,0.378-0.08,0.562
		c-0.009,1.049-0.008,2.097-0.007,3.145l0.001,1.417l0.522,0.347c-0.051,0.185-0.229,0.339-0.419,0.503
		c-0.121,0.104-0.245,0.213-0.344,0.351L91.067,10.733z"/>
	<path d="M83.529,10.478c0.051-0.003,0.07-0.094,0.089-0.182c0.037-0.17,0.075-0.343,0.076-0.517
		c0.009-0.989,0.008-1.98,0.007-2.971L83.7,5.466l1.291-0.79l0.898-0.578l1.596,1.021c-0.001,0-0.001,0-0.001,0
		c-0.051,0-0.073,0.09-0.095,0.177c-0.047,0.194-0.089,0.366-0.09,0.542c-0.01,1.01-0.009,2.02-0.008,3.022l0.001,1.303
		l-2.139,1.335L83.529,10.478z M84.873,10.051l0.508,0.359l0.613,0.382l0.122-5.253l-1.243-0.78V10.051z"/>
	<path d="M50.993,10.475c0.002,0,0.003,0,0.005,0c0.047,0,0.064-0.081,0.084-0.167c0.041-0.185,0.078-0.35,0.079-0.52
		c0.009-0.909,0.008-1.82,0.007-2.731l-0.001-1.592l0.659-0.38l1.53-0.986l1.599,1.021c-0.053,0-0.075,0.094-0.097,0.185
		c-0.044,0.181-0.09,0.369-0.091,0.556c-0.011,1.068-0.01,2.136-0.008,3.198l0.001,1.103l-2.138,1.338L50.993,10.475z M52.34,10.047
		l0.402,0.298l0.719,0.452l0.122-5.231L52.34,4.758V10.047z"/>
	<path d="M78.532,10.476c0.001,0,0.001,0,0.002,0c0.049,0,0.068-0.087,0.087-0.172c0.041-0.189,0.077-0.354,0.078-0.521
		c0.009-0.99,0.008-1.982,0.007-2.974l-0.001-1.344l1.102-0.667l1.088-0.7l0.399,0.295L82.49,5.12
		c-0.052,0.003-0.074,0.098-0.097,0.19c-0.046,0.198-0.088,0.375-0.089,0.556c-0.01,1.004-0.009,2.007-0.008,3.004l0.001,1.291
		l-0.555,0.315l-1.584,1.021L78.532,10.476z M79.88,10.049l1.119,0.75l0.123-5.231L79.88,4.761V10.049z"/>
	<path d="M41.344,10.842l-0.408-0.298c0.256-0.332,0.236-0.791,0.217-1.235c-0.012-0.279-0.023-0.565,0.026-0.846l1.006-0.508
		l-0.003-0.197c-0.424-0.221-0.696-0.539-0.803-0.944c-0.125-0.474-0.015-1.039,0.286-1.476c0.201-0.291,0.423-0.567,0.651-0.85
		l0.321-0.402l0.556,0.305l1.68,0.724c-0.006-0.002-0.011-0.003-0.017-0.003c-0.043,0-0.063,0.07-0.083,0.139
		c-0.047,0.163-0.091,0.315-0.092,0.475c-0.01,1.182-0.009,2.364-0.007,3.545l0.001,0.941l0.018,0.13l0.038,0.095l0.553,0.282
		l-0.521,0.434l-0.329,0.37l-1.121-0.846l-0.679,0.496l-0.417,0.353L41.344,10.842z M42.287,10.274l0.611,0.456l0.497-0.342
		l0.079-0.067l0.028-2.381l-1.214-0.081V10.274z M42.37,5.195c-0.23,0-0.438,0.1-0.601,0.288c-0.361,0.417-0.376,1.264-0.031,1.709
		c0.271,0.348,0.72,0.564,1.173,0.564c0.2,0,0.391-0.044,0.553-0.127l0.043-1.875l-0.244-0.187l-0.332-0.19
		c-0.067-0.038-0.136-0.075-0.206-0.104C42.606,5.221,42.487,5.195,42.37,5.195z"/>
	<path d="M69.434,10.544c0.253-0.35,0.234-0.813,0.217-1.263c-0.011-0.277-0.022-0.554,0.022-0.818l1.039-0.524l-0.179-0.278
		c-0.136-0.101-0.249-0.185-0.344-0.285c-0.44-0.469-0.482-1.263-0.102-1.931c0.057-0.098,0.12-0.192,0.189-0.281l0.866-1.075
		l0.822,0.418l1.382,0.596c-0.023,0.008-0.038,0.044-0.052,0.078c-0.051,0.122-0.101,0.244-0.102,0.372
		c-0.01,1.242-0.01,2.484-0.009,3.75l0.001,1.068l0.449,0.272l0.157,0.078l-0.671,0.596l-0.186,0.205l-1.124-0.849l-0.725,0.534
		l-0.373,0.316L69.434,10.544z M70.781,10.271l0.476,0.365l0.14,0.094l0.389-0.252l0.192-0.163l0.028-2.375l-1.225-0.081V10.271z
		 M70.869,5.192c-0.217,0-0.419,0.092-0.582,0.267c-0.381,0.405-0.404,1.281-0.048,1.736c0.271,0.347,0.719,0.563,1.169,0.563
		c0.202,0,0.394-0.045,0.556-0.132l0.042-1.875L71.74,5.553c-0.177-0.1-0.345-0.196-0.52-0.278
		C71.105,5.22,70.987,5.192,70.869,5.192z"/>
	<path d="M14.869,10.318C14.869,10.318,14.87,10.318,14.869,10.318c0.054,0,0.073-0.095,0.092-0.188
		c0.041-0.197,0.079-0.388,0.081-0.577c0.01-0.957,0.009-1.913,0.008-2.869l-0.001-1.561l1.182-0.506v2.858l0.648-0.208l0.621-0.325
		l-0.141-0.419l-1.079-1.926l1.051-0.451l1.203,2.436l-0.886,0.4l-1.389,0.767l-0.041,2.039l0.29,0.214
		c0.193,0.114,0.382,0.225,0.577,0.323c0.184,0.093,0.339,0.155,0.501,0.155c0.196,0,0.363-0.094,0.511-0.286l-0.032,0.109
		l-0.96,0.971l-0.195,0.188L14.869,10.318z"/>
	<path d="M74.604,10.56c0.003,0.001,0.005,0.001,0.008,0.001c0.045,0,0.062-0.079,0.081-0.163c0.042-0.193,0.079-0.365,0.08-0.545
		c0.009-1.131,0.008-2.262,0.007-3.408l-0.001-1.168l-0.636-0.363l0.497-0.36L75.085,4.1l0.953,0.886l0.636-0.489l0.42-0.385
		l0.491,0.791l0.454,0.598l-0.846,0.961l-0.852-1.413l-0.351,0.205l-0.029,4.792l0.581,0.344l0.38,0.192l0.438-0.324l0.082,0.119
		l-0.773,0.613l-0.473,0.452L74.604,10.56z"/>
	<path d="M37.158,10.323c0.002,0,0.004,0,0.005,0c0.05,0,0.068-0.083,0.086-0.171c0.038-0.176,0.077-0.356,0.078-0.537
		c0.01-0.94,0.008-1.88,0.007-2.82L37.334,5.49l2.185-1.362c0.045,0.083,0.172,0.192,0.302,0.303
		c0.291,0.248,0.591,0.505,1.041,0.572L40.453,5.26l-0.591,0.638l-0.206-0.252l-1.004-0.781l-0.129,4.938l0.468,0.299
		c0.284,0.171,0.578,0.347,0.932,0.347c0.192,0,0.38-0.051,0.576-0.156l0.02,0.088l-1.157,1.107L37.158,10.323z"/>
	<path d="M34.459,10.723c0.003,0.001,0.006,0.001,0.009,0.001c0.04,0,0.06-0.073,0.08-0.151c0.047-0.178,0.087-0.332,0.088-0.494
		c0.01-1.235,0.008-2.47,0.007-3.706l-0.004-0.96l-0.042-0.187l-0.582-0.287l0.347-0.226l0.578-0.631l1.035,0.826
		c-0.046,0.025-0.066,0.129-0.085,0.23c-0.041,0.221-0.077,0.421-0.079,0.621c-0.01,1.085-0.009,2.17-0.008,3.274l0.001,1.319
		l0.619,0.356l-0.846,0.801L34.459,10.723z"/>
	<polygon points="34.611,2.891 35.503,2.012 36.066,1.388 36.133,1.779 36.405,2.339 35.919,2.605 34.98,3.277 	"/>
</g>
</svg>
